<svg width="406" height="306" viewBox="0 0 406 306" fill="none" xmlns="http://www.w3.org/2000/svg">
<path opacity="0.45" d="M208.654 278.941C293.71 278.941 362.66 269.525 362.66 257.91C362.66 246.295 293.71 236.88 208.654 236.88C123.599 236.88 54.6484 246.295 54.6484 257.91C54.6484 269.525 123.599 278.941 208.654 278.941Z" fill="#E6E6E6"/>
<path opacity="0.58" d="M290.686 239.052C290.686 239.052 278.435 235.763 275.725 224.375C275.725 224.375 294.675 220.467 295.294 240.036L290.686 239.052Z" fill="#68E1FD"/>
<path opacity="0.73" d="M292.188 237.834C292.188 237.834 283.581 224.344 291.051 211.677C291.051 211.677 305.505 220.812 299.171 237.834H292.188Z" fill="#68E1FD"/>
<path d="M294.35 237.834C294.35 237.834 298.805 223.532 312.457 220.771C312.457 220.771 315.056 230.028 303.677 237.834H294.35Z" fill="#68E1FD"/>
<path d="M285.51 237.55L288.068 254.51H303.688L305.921 237.55H285.51Z" fill="#24285B"/>
<path d="M260.926 46.7498H145.084V254.51H260.926V46.7498Z" fill="#C9C9C9"/>
<path d="M250.553 70.4399H154.666V216.651H250.553V70.4399Z" fill="white"/>
<path opacity="0.08" d="M260.917 87.9487H214.684V128.518H260.917V87.9487Z" fill="black"/>
<path opacity="0.08" d="M260.916 147.417H207.578V187.987H260.916V147.417Z" fill="black"/>
<path opacity="0.56" d="M203.355 246.715C209.617 246.715 214.693 241.639 214.693 235.377C214.693 229.116 209.617 224.04 203.355 224.04C197.094 224.04 192.018 229.116 192.018 235.377C192.018 241.639 197.094 246.715 203.355 246.715Z" fill="white"/>
<path opacity="0.08" d="M188.536 126.295L207.578 129.137L206.989 130.406C205.09 134.686 203.999 139.28 203.772 143.956C203.629 146.23 202.34 149.336 198.057 152.99C190.749 159.222 186.05 179.289 176.346 187.124C173.474 189.519 171.144 192.496 169.509 195.86C167.875 199.223 166.974 202.895 166.866 206.633L164.978 254.5H146.16L150.312 181.308L155.295 156.045L167.475 143.54L178.64 129.137L183.715 126.295H188.536Z" fill="black"/>
<path opacity="0.12" d="M225.685 54.8699H193.205V59.6099H225.685V54.8699Z" fill="black"/>
<path d="M181.44 63.0407C184.361 63.0407 186.729 60.6731 186.729 57.7525C186.729 54.8319 184.361 52.4644 181.44 52.4644C178.52 52.4644 176.152 54.8319 176.152 57.7525C176.152 60.6731 178.52 63.0407 181.44 63.0407Z" fill="white"/>
<path d="M155.254 153.528L173.483 130.802L177.422 134.253L161.882 160.237L155.254 153.528Z" fill="#68E1FD"/>
<path d="M125.057 116.095L128.417 126.194L120.429 131.269L117.557 113.77L125.057 116.095Z" fill="#F4A28C"/>
<path d="M114.817 104.016C115.231 103.054 115.88 102.211 116.704 101.563C117.528 100.916 118.501 100.485 119.534 100.309C120.566 100.134 121.627 100.22 122.618 100.559C123.61 100.897 124.501 101.479 125.21 102.25C128.61 105.874 132.711 111.649 128.072 114.795C120.967 119.607 114.461 110.614 114.461 110.614C113.927 108.428 114.051 106.132 114.817 104.016Z" fill="#F4A28C"/>
<path d="M120.004 110.208C120.004 110.208 118.187 108.685 117.355 110.847C116.522 113.009 119.75 114.044 120.704 112.958C121.658 111.872 120.004 110.208 120.004 110.208Z" fill="#F4A28C"/>
<path d="M111.101 136.222C112.309 133.55 114.078 131.17 116.289 129.243C118.499 127.317 121.099 125.889 123.91 125.057C134.761 121.799 154.756 125.362 160.846 135.522C169.19 149.417 156.979 193.58 156.979 193.58L120.5 196.412C120.5 196.412 100.484 160.196 111.101 136.222Z" fill="#68E1FD"/>
<path d="M156.98 193.559L152.179 256.266H144.597L137.817 207.546L121.049 196.391L156.98 193.559Z" fill="#24285B"/>
<path d="M121.049 196.391L110.584 256.266H118.714L136.284 206.521L121.049 196.391Z" fill="#24285B"/>
<path opacity="0.08" d="M127.067 124.083C127.067 124.083 110.005 179.035 159.273 182.679L156.979 193.6L120.5 196.432C120.5 196.432 107.65 176.244 108.188 147.895C108.188 147.895 108.503 133.878 118.338 127.686C120.958 125.876 123.934 124.648 127.067 124.083Z" fill="black"/>
<path d="M112.493 256.134L107.591 259.748C107.412 259.885 107.28 260.074 107.213 260.289C107.146 260.504 107.148 260.735 107.218 260.949C107.288 261.163 107.424 261.35 107.605 261.484C107.786 261.618 108.005 261.692 108.23 261.696H116.441C116.728 261.694 117.001 261.578 117.203 261.375C117.404 261.171 117.517 260.897 117.517 260.61V256.134H112.493Z" fill="#68E1FD"/>
<path d="M151.235 256.134L155.853 259.748C156.035 259.886 156.167 260.078 156.233 260.296C156.299 260.514 156.295 260.748 156.221 260.963C156.147 261.179 156.007 261.366 155.821 261.497C155.634 261.629 155.411 261.699 155.184 261.696H149.337C148.921 261.703 148.509 261.627 148.123 261.472C147.737 261.317 147.386 261.087 147.09 260.795C146.794 260.503 146.56 260.155 146.4 259.771C146.24 259.388 146.159 258.976 146.16 258.56V256.124L151.235 256.134Z" fill="#68E1FD"/>
<path d="M141.937 124.752C140.12 127.67 139.156 131.039 139.156 134.476C139.156 137.914 140.12 141.282 141.937 144.2C145.916 150.919 157.497 163.992 165.404 172.62C166.297 173.598 167.41 174.35 168.651 174.813C169.892 175.276 171.226 175.438 172.541 175.284C173.857 175.13 175.117 174.666 176.218 173.929C177.319 173.192 178.229 172.204 178.873 171.047L195.894 141.094L190.129 137.399L174.549 160.237C174.549 160.237 163.861 125.189 141.937 124.752Z" fill="#68E1FD"/>
<path opacity="0.2" d="M141.937 124.752C140.12 127.67 139.156 131.039 139.156 134.476C139.156 137.914 140.12 141.282 141.937 144.2C145.916 150.919 157.497 163.992 165.404 172.62C166.297 173.598 167.41 174.35 168.651 174.813C169.892 175.276 171.226 175.438 172.541 175.284C173.857 175.13 175.117 174.666 176.218 173.929C177.319 173.192 178.229 172.204 178.873 171.047L195.894 141.094L190.129 137.399L174.549 160.237C174.549 160.237 163.861 125.189 141.937 124.752Z" fill="white"/>
<path d="M193.865 139.805C193.865 139.805 203.518 136.263 199.579 130.802C195.641 125.341 190.109 137.4 190.109 137.4L193.865 139.805Z" fill="#F4A28C"/>
<path d="M202.632 123.947L193.934 120.051L188.253 132.732L196.951 136.628L202.632 123.947Z" fill="#2AC357"/>
<path d="M118.085 116.978L112.665 111.385C112.106 110.803 111.672 110.113 111.39 109.357C111.107 108.601 110.981 107.796 111.021 106.99C111.153 104.148 111.762 99.611 114.066 96.2006C117.76 90.8617 122.683 88.8419 123.901 93.4601C125.119 98.0784 125.383 92.5974 128.357 95.0435C131.331 97.4897 130.722 98.9411 128.357 100.24C125.992 101.54 121.09 103.427 120.653 107.345C120.217 111.263 123.972 114.359 118.085 116.978Z" fill="#24285B"/>
<path d="M174.408 131.614C174.408 131.614 175.616 123.281 183.695 124.083C191.775 124.885 188.821 126.945 185.563 127.128C184.9 127.267 184.287 127.582 183.787 128.039C183.287 128.496 182.919 129.078 182.721 129.726C182.244 131.188 180.935 133.076 177.453 134.273L174.408 131.614Z" fill="#F4A28C"/>
<path d="M311.647 81.95H214.684V122.52H311.647V81.95Z" fill="#2AC357"/>
<path d="M304.541 141.835H207.578V182.405H304.541V141.835Z" fill="#2AC357"/>
<path d="M257.861 90.75H225.686V111.365H257.861V90.75Z" fill="white"/>
<path d="M225.686 90.75L241.763 105.802L257.851 90.75H225.686Z" fill="#24285B"/>
<path d="M299.303 92.9424H269.695V99.0324H299.303V92.9424Z" fill="white"/>
<path opacity="0.46" d="M299.303 102.758H269.695V108.848H299.303V102.758Z" fill="white"/>
<path d="M290.533 152.99H258.449V159.08H290.533V152.99Z" fill="white"/>
<path opacity="0.46" d="M290.533 162.805H258.449V168.895H290.533V162.805Z" fill="white"/>
<path d="M234.395 176.812C242.685 176.812 249.407 170.091 249.407 161.8C249.407 153.509 242.685 146.788 234.395 146.788C226.104 146.788 219.383 153.509 219.383 161.8C219.383 170.091 226.104 176.812 234.395 176.812Z" fill="#24285B"/>
<path d="M234.759 163.789C237.943 163.789 240.525 161.208 240.525 158.024C240.525 154.84 237.943 152.259 234.759 152.259C231.575 152.259 228.994 154.84 228.994 158.024C228.994 161.208 231.575 163.789 234.759 163.789Z" fill="white"/>
<path opacity="0.24" d="M224.314 172.945C224.314 172.945 225.563 164.135 234.373 163.678C243.711 163.201 244.432 172.945 244.432 172.945C241.673 175.435 238.089 176.813 234.373 176.813C230.657 176.813 227.073 175.435 224.314 172.945Z" fill="white"/>
<path d="M100.231 122.053L91.8978 118.642V110.725H59.1641V131.117H91.8978V124.255L100.231 122.053Z" fill="#E6E6E6"/>
<path opacity="0.12" d="M68.2074 123.413C69.5808 123.413 70.6942 122.299 70.6942 120.926C70.6942 119.553 69.5808 118.439 68.2074 118.439C66.8341 118.439 65.7207 119.553 65.7207 120.926C65.7207 122.299 66.8341 123.413 68.2074 123.413Z" fill="black"/>
<path opacity="0.12" d="M75.475 123.413C76.8484 123.413 77.9618 122.299 77.9618 120.926C77.9618 119.553 76.8484 118.439 75.475 118.439C74.1016 118.439 72.9883 119.553 72.9883 120.926C72.9883 122.299 74.1016 123.413 75.475 123.413Z" fill="black"/>
<path opacity="0.12" d="M82.5707 123.413C83.9441 123.413 85.0575 122.299 85.0575 120.926C85.0575 119.553 83.9441 118.439 82.5707 118.439C81.1973 118.439 80.084 119.553 80.084 120.926C80.084 122.299 81.1973 123.413 82.5707 123.413Z" fill="black"/>
</svg>
